<?xml version="1.0" encoding="UTF-8" standalone="no"?><svg xmlns="http://www.w3.org/2000/svg" xmlns:xlink="http://www.w3.org/1999/xlink" contentScriptType="application/ecmascript" contentStyleType="text/css" height="548px" preserveAspectRatio="none" style="width:535px;height:548px;" version="1.1" viewBox="0 0 535 548" width="535px" zoomAndPan="magnify"><defs><filter height="300%" id="f1fi6xq3x37d9t" width="300%" x="-1" y="-1"><feGaussianBlur result="blurOut" stdDeviation="2.0"/><feColorMatrix in="blurOut" result="blurOut2" type="matrix" values="0 0 0 0 0 0 0 0 0 0 0 0 0 0 0 0 0 0 .4 0"/><feOffset dx="4.0" dy="4.0" in="blurOut2" result="blurOut3"/><feBlend in="SourceGraphic" in2="blurOut3" mode="normal"/></filter></defs><g><ellipse cx="16" cy="33" fill="#000000" filter="url(#f1fi6xq3x37d9t)" rx="10" ry="10" style="stroke: none; stroke-width: 1.0;"/><rect fill="#FEFECE" filter="url(#f1fi6xq3x37d9t)" height="40" rx="12.5" ry="12.5" style="stroke: #A80036; stroke-width: 1.5;" width="52" x="82" y="13"/><text fill="#000000" font-family="sans-serif" font-size="14" lengthAdjust="spacingAndGlyphs" textLength="42" x="87" y="37.8467">Guest</text><rect fill="#FEFECE" filter="url(#f1fi6xq3x37d9t)" height="50.2656" rx="12.5" ry="12.5" style="stroke: #A80036; stroke-width: 1.5;" width="90" x="281" y="8"/><line style="stroke: #A80036; stroke-width: 1.5;" x1="281" x2="371" y1="34.2969" y2="34.2969"/><text fill="#000000" font-family="sans-serif" font-size="14" lengthAdjust="spacingAndGlyphs" textLength="43" x="304.5" y="25.9951">Empty</text><text fill="#000000" font-family="sans-serif" font-size="12" lengthAdjust="spacingAndGlyphs" textLength="70" x="286" y="50.4355">search_trip</text><ellipse cx="312" cy="527" fill="none" filter="url(#f1fi6xq3x37d9t)" rx="10" ry="10" style="stroke: #000000; stroke-width: 1.0;"/><ellipse cx="312.5" cy="527.5" fill="#000000" rx="6" ry="6" style="stroke: none; stroke-width: 1.0;"/><rect fill="#FEFECE" filter="url(#f1fi6xq3x37d9t)" height="40" rx="12.5" ry="12.5" style="stroke: #A80036; stroke-width: 1.5;" width="50" x="160" y="189"/><text fill="#000000" font-family="sans-serif" font-size="14" lengthAdjust="spacingAndGlyphs" textLength="33" x="168.5" y="213.8467">Error</text><rect fill="#FEFECE" filter="url(#f1fi6xq3x37d9t)" height="64.2344" rx="12.5" ry="12.5" style="stroke: #A80036; stroke-width: 1.5;" width="91" x="338.5" y="259"/><line style="stroke: #A80036; stroke-width: 1.5;" x1="338.5" x2="429.5" y1="285.2969" y2="285.2969"/><text fill="#000000" font-family="sans-serif" font-size="14" lengthAdjust="spacingAndGlyphs" textLength="71" x="348.5" y="276.9951">NonEmpty</text><text fill="#000000" font-family="sans-serif" font-size="12" lengthAdjust="spacingAndGlyphs" textLength="70" x="343.5" y="301.4355">search_trip</text><text fill="#000000" font-family="sans-serif" font-size="12" lengthAdjust="spacingAndGlyphs" textLength="51" x="343.5" y="315.4043">add_trip</text><rect fill="#FEFECE" filter="url(#f1fi6xq3x37d9t)" height="40" rx="12.5" ry="12.5" style="stroke: #A80036; stroke-width: 1.5;" width="79" x="426.5" y="400"/><text fill="#000000" font-family="sans-serif" font-size="14" lengthAdjust="spacingAndGlyphs" textLength="69" x="431.5" y="424.8467">RetryError</text><polygon fill="#FEFECE" filter="url(#f1fi6xq3x37d9t)" points="213,21,225,33,213,45,201,33,213,21" style="stroke: #A80036; stroke-width: 1.5;"/><polygon fill="#FEFECE" filter="url(#f1fi6xq3x37d9t)" points="501,279,513,291,501,303,489,291,501,279" style="stroke: #A80036; stroke-width: 1.5;"/><polygon fill="#FEFECE" filter="url(#f1fi6xq3x37d9t)" points="384,135,396,147,384,159,372,147,384,135" style="stroke: #A80036; stroke-width: 1.5;"/><!--MD5=[e7274ab510d4f604ef7f8139645a3b04]
link *start to Guest--><path d="M26.2,33 C38.24,33 58.84,33 76.36,33 " fill="none" id="*start-&gt;Guest" style="stroke: #A80036; stroke-width: 1.0;"/><polygon fill="#A80036" points="81.69,33,72.69,29,76.69,33,72.69,37,81.69,33" style="stroke: #A80036; stroke-width: 1.0;"/><text fill="#000000" font-family="sans-serif" font-size="13" lengthAdjust="spacingAndGlyphs" textLength="19" x="44.5" y="26.0669">init</text><!--MD5=[0303aadcb954207f6f5957361da02f25]
link Empty to *end--><path d="M304.73,58.38 C288.18,79.91 268,112.94 268,146 C268,146 268,146 268,421 C268,457.26 290.6,495.47 303.4,514.22 " fill="none" id="Empty-&gt;*end" style="stroke: #A80036; stroke-width: 1.0;"/><polygon fill="#A80036" points="306.43,518.55,304.5661,508.8791,303.5713,514.4478,298.0026,513.453,306.43,518.55" style="stroke: #A80036; stroke-width: 1.0;"/><text fill="#000000" font-family="sans-serif" font-size="13" lengthAdjust="spacingAndGlyphs" textLength="33" x="269" y="295.5669">close</text><!--MD5=[7748d72ab64101d2b173fcc1f57892c5]
link Error to *end--><path d="M183.38,229.26 C180.34,278.1 178.98,408.52 242,487 C256.4,504.93 281.39,515.97 297.29,521.54 " fill="none" id="Error-&gt;*end" style="stroke: #A80036; stroke-width: 1.0;"/><polygon fill="#A80036" points="302.31,523.22,295.0428,516.5726,297.568,521.6346,292.5061,524.1598,302.31,523.22" style="stroke: #A80036; stroke-width: 1.0;"/><text fill="#000000" font-family="sans-serif" font-size="13" lengthAdjust="spacingAndGlyphs" textLength="33" x="193" y="366.0669">close</text><!--MD5=[98fa92593f935640b770baa2fba1276b]
link NonEmpty to *end--><path d="M374.44,323.07 C358.62,374.5 327.6,475.29 316.27,512.11 " fill="none" id="NonEmpty-&gt;*end" style="stroke: #A80036; stroke-width: 1.0;"/><polygon fill="#A80036" points="314.75,517.06,321.2246,509.6384,316.2234,512.282,313.5798,507.2809,314.75,517.06" style="stroke: #A80036; stroke-width: 1.0;"/><text fill="#000000" font-family="sans-serif" font-size="13" lengthAdjust="spacingAndGlyphs" textLength="33" x="352" y="424.5669">close</text><!--MD5=[07524ca746dda6ad631e21e8217f1723]
link RetryError to *end--><path d="M443.56,440.22 C427.04,453.96 403.77,472.51 382,487 C363.06,499.6 339.76,512.02 325.39,519.34 " fill="none" id="RetryError-&gt;*end" style="stroke: #A80036; stroke-width: 1.0;"/><polygon fill="#A80036" points="320.88,521.62,330.7169,521.1351,325.3435,519.3668,327.1119,513.9935,320.88,521.62" style="stroke: #A80036; stroke-width: 1.0;"/><text fill="#000000" font-family="sans-serif" font-size="13" lengthAdjust="spacingAndGlyphs" textLength="33" x="407" y="483.0669">close</text><!--MD5=[a6b80b00a24c5028a317c5e83fb46fd1]
link RetryError to NonEmpty--><path d="M453.54,399.7 C441.17,380.55 421.94,350.76 406.83,327.36 " fill="none" id="RetryError-&gt;NonEmpty" style="stroke: #A80036; stroke-width: 1.0;"/><polygon fill="#A80036" points="404.06,323.07,405.5855,332.8,406.7739,327.2694,412.3045,328.4578,404.06,323.07" style="stroke: #A80036; stroke-width: 1.0;"/><text fill="#000000" font-family="sans-serif" font-size="13" lengthAdjust="spacingAndGlyphs" textLength="30" x="434" y="366.0669">retry</text><!--MD5=[dca27be6657a48f97af2cb0cfdf8a545]
link Guest to C_Guest--><path d="M134.23,33 C153.43,33 178.97,33 195.68,33 " fill="none" id="Guest-&gt;C_Guest" style="stroke: #A80036; stroke-width: 1.0;"/><polygon fill="#A80036" points="200.99,33,191.99,29,195.99,33,191.99,37,200.99,33" style="stroke: #A80036; stroke-width: 1.0;"/><text fill="#000000" font-family="sans-serif" font-size="13" lengthAdjust="spacingAndGlyphs" textLength="30" x="152.5" y="26.0669">login</text><!--MD5=[765d2e590601ab687f802f57b765cf1e]
link C_Guest to Empty--><path d="M225.36,33 C242.1,33 258.85,33 275.59,33 " fill="none" id="C_Guest-&gt;Empty" style="stroke: #A80036; stroke-width: 1.0;"/><polygon fill="#A80036" points="280.79,33,271.79,29,275.79,33,271.79,37,280.79,33" style="stroke: #A80036; stroke-width: 1.0;"/><!--MD5=[2ed609190cdd2e9b8905b05ec1cfa6a6]
link C_Guest to Error--><path d="M211.45,43.6 C207.19,70.13 195.14,145 188.88,183.88 " fill="none" id="C_Guest-&gt;Error" style="stroke: #A80036; stroke-width: 1.0;"/><polygon fill="#A80036" points="188.07,188.89,193.4566,180.6447,188.8689,183.9542,185.5593,179.3665,188.07,188.89" style="stroke: #A80036; stroke-width: 1.0;"/><!--MD5=[77efbc40e845631edd86df30729e0748]
link NonEmpty to C_NonEmpty--><path d="M429.57,291 C448.49,291 469.31,291 483.56,291 " fill="none" id="NonEmpty-&gt;C_NonEmpty" style="stroke: #A80036; stroke-width: 1.0;"/><polygon fill="#A80036" points="488.87,291,479.87,287,483.87,291,479.87,295,488.87,291" style="stroke: #A80036; stroke-width: 1.0;"/><text fill="#000000" font-family="sans-serif" font-size="13" lengthAdjust="spacingAndGlyphs" textLength="23" x="447.75" y="284.0669">buy</text><!--MD5=[79b97038b61366cf44d70bdb2c0f8f90]
link C_NonEmpty to Empty--><path d="M498.9,280.94 C491.48,250.54 463.99,150.64 410,88 C400.42,76.89 388,67.22 375.66,59.26 " fill="none" id="C_NonEmpty-&gt;Empty" style="stroke: #A80036; stroke-width: 1.0;"/><polygon fill="#A80036" points="371.12,56.41,376.5924,64.5986,375.3471,59.0805,380.8652,57.8352,371.12,56.41" style="stroke: #A80036; stroke-width: 1.0;"/><!--MD5=[e1b2e91236104a8db5a41ed212d13ba7]
link C_NonEmpty to RetryError--><path d="M498.59,300.73 C493.33,319.83 480.63,365.9 472.73,394.58 " fill="none" id="C_NonEmpty-&gt;RetryError" style="stroke: #A80036; stroke-width: 1.0;"/><polygon fill="#A80036" points="471.31,399.72,477.5601,392.1084,472.6401,394.9002,469.8483,389.9802,471.31,399.72" style="stroke: #A80036; stroke-width: 1.0;"/><!--MD5=[40ff9d4342a79f12078e8e60866a0bbf]
link Empty to C_Empty--><path d="M319.12,58.05 C316.36,72.48 315.4,90.74 323,105 C332.94,123.66 355.56,135.34 370.28,141.26 " fill="none" id="Empty-&gt;C_Empty" style="stroke: #A80036; stroke-width: 1.0;"/><polygon fill="#A80036" points="375.31,143.18,368.3315,136.2301,370.6396,141.3947,365.475,143.7027,375.31,143.18" style="stroke: #A80036; stroke-width: 1.0;"/><text fill="#000000" font-family="sans-serif" font-size="13" lengthAdjust="spacingAndGlyphs" textLength="52" x="324" y="101.0669">add_trip</text><!--MD5=[630cf575ce6dc31710d59fe897bc951e]
link C_Empty to Empty--><path d="M385.54,136.47 C387.03,124.56 388.12,103.81 381,88 C376.66,78.35 369.75,69.51 362.28,61.9 " fill="none" id="C_Empty-&gt;Empty" style="stroke: #A80036; stroke-width: 1.0;"/><polygon fill="#A80036" points="358.57,58.27,362.1982,67.4262,362.1411,61.7696,367.7976,61.7125,358.57,58.27" style="stroke: #A80036; stroke-width: 1.0;"/><!--MD5=[0dc0ceeb9a9a6b3bfc73b8dc14a28aaf]
link C_Empty to NonEmpty--><path d="M384,159.14 C384,179.23 384,222.33 384,253.59 " fill="none" id="C_Empty-&gt;NonEmpty" style="stroke: #A80036; stroke-width: 1.0;"/><polygon fill="#A80036" points="384,258.89,388,249.89,384,253.89,380,249.89,384,258.89" style="stroke: #A80036; stroke-width: 1.0;"/><!--MD5=[5b186762d837d04a4fc4f06ca791863c]
@startuml
hide empty description
[*] -> Guest : init

Empty -d-> [*] : close
Error -d-> [*] : close
NonEmpty -d-> [*] : close
RetryError -d-> [*] : close
RetryError - -> NonEmpty : retry
NonEmpty : search_trip
NonEmpty : add_trip
Empty : search_trip

state C_Guest <<choice>>
Guest -> C_Guest: login
C_Guest -> Empty
C_Guest -d-> Error

state C_NonEmpty <<choice>>
NonEmpty -> C_NonEmpty: buy
C_NonEmpty - -> Empty
C_NonEmpty - -> RetryError

state C_Empty <<choice>>
Empty - -> C_Empty: add_trip
C_Empty - -> Empty
C_Empty - -> NonEmpty

@enduml

PlantUML version 1.2020.02(Sun Mar 01 10:22:07 WET 2020)
(GPL source distribution)
Java Runtime: OpenJDK Runtime Environment
JVM: OpenJDK 64-Bit Server VM
Java Version: 11.0.11+9-Ubuntu-0ubuntu2.20.10
Operating System: Linux
Default Encoding: UTF-8
Language: en
Country: US
--></g></svg>